HIERARCHY
ROOT Hips
{
	OFFSET 0.000000 0.000000 0.000000
	CHANNELS 6 Xposition Yposition Zposition Zrotation Yrotation Xrotation 
	JOINT LHipJoint
	{
		OFFSET 0.000000 0.000000 0.000000
		CHANNELS 3 Zrotation Yrotation Xrotation
		JOINT LeftUpLeg
		{
			OFFSET 1.363060 -1.794630 0.839290
			CHANNELS 3 Zrotation Yrotation Xrotation
			JOINT LeftLeg
			{
				OFFSET 2.448110 -6.726130 0.000000
				CHANNELS 3 Zrotation Yrotation Xrotation
				JOINT LeftFoot
				{
					OFFSET 2.562200 -7.039590 0.000000
					CHANNELS 3 Zrotation Yrotation Xrotation
					JOINT LeftToeBase
					{
						OFFSET 0.157640 -0.433110 2.322550
						CHANNELS 3 Zrotation Yrotation Xrotation
						End Site
						{
							OFFSET 0.000000 0.000000 0.000000
						}
					}
				}
			}
		}
	}
	JOINT RHipJoint
	{
		OFFSET 0.000000 0.000000 0.000000
		CHANNELS 3 Zrotation Yrotation Xrotation
		JOINT RightUpLeg
		{
			OFFSET -1.305520 -1.794630 0.839290
			CHANNELS 3 Zrotation Yrotation Xrotation
			JOINT RightLeg
			{
				OFFSET -2.542530 -6.985550 0.000000
				CHANNELS 3 Zrotation Yrotation Xrotation
				JOINT RightFoot
				{
					OFFSET -2.568260 -7.056230 0.000000
					CHANNELS 3 Zrotation Yrotation Xrotation
					JOINT RightToeBase
					{
						OFFSET -0.164730 -0.452590 2.363150
						CHANNELS 3 Zrotation Yrotation Xrotation
						End Site
						{
							OFFSET 0.000000 0.000000 0.000000
						}
					}
				}
			}
		}
	}
	JOINT LowerBack
	{
		OFFSET 0.000000 0.000000 0.000000
		CHANNELS 3 Zrotation Yrotation Xrotation
		JOINT Spine
		{
			OFFSET 0.028270 2.035590 -0.193380
			CHANNELS 3 Zrotation Yrotation Xrotation
			JOINT Spine1
			{
				OFFSET 0.056720 2.048850 -0.042750
				CHANNELS 3 Zrotation Yrotation Xrotation
				JOINT Neck
				{
					OFFSET 0.000000 0.000000 0.000000
					CHANNELS 3 Zrotation Yrotation Xrotation
					JOINT Neck1
					{
						OFFSET -0.054170 1.746240 0.172020
						CHANNELS 3 Zrotation Yrotation Xrotation
						JOINT Head
						{
							OFFSET 0.104070 1.761360 -0.123970
							CHANNELS 3 Zrotation Yrotation Xrotation
							End Site
							{
								OFFSET 0.000000 0.000000 0.000000
							}
						}
					}
				}
				JOINT LeftShoulder
				{
					OFFSET 0.000000 0.000000 0.000000
					CHANNELS 3 Zrotation Yrotation Xrotation
					JOINT LeftArm
					{
						OFFSET 3.362410 1.200890 -0.311210
						CHANNELS 3 Zrotation Yrotation Xrotation
						JOINT LeftForeArm
						{
							OFFSET 4.983000 -0.000000 -0.000000
							CHANNELS 3 Zrotation Yrotation Xrotation
							JOINT LeftHand
							{
								OFFSET 3.483560 -0.000000 -0.000000
								CHANNELS 3 Zrotation Yrotation Xrotation
								JOINT LeftFingerBase
								{
									OFFSET 0.000000 0.000000 0.000000
									CHANNELS 3 Zrotation Yrotation Xrotation
									JOINT LeftHandIndex1
									{
										OFFSET 0.715260 -0.000000 -0.000000
										CHANNELS 3 Zrotation Yrotation Xrotation
										End Site
										{
											OFFSET 0.000000 0.000000 0.000000
										}
									}
								}
								JOINT LThumb
								{
									OFFSET 0.000000 0.000000 0.000000
									CHANNELS 3 Zrotation Yrotation Xrotation
									End Site
									{
										OFFSET 0.000000 0.000000 0.000000
									}
								}
							}
						}
					}
				}
				JOINT RightShoulder
				{
					OFFSET 0.000000 0.000000 0.000000
					CHANNELS 3 Zrotation Yrotation Xrotation
					JOINT RightArm
					{
						OFFSET -3.136600 1.374050 -0.404650
						CHANNELS 3 Zrotation Yrotation Xrotation
						JOINT RightForeArm
						{
							OFFSET -5.241900 -0.000000 -0.000000
							CHANNELS 3 Zrotation Yrotation Xrotation
							JOINT RightHand
							{
								OFFSET -3.444170 -0.000000 -0.000000
								CHANNELS 3 Zrotation Yrotation Xrotation
								JOINT RightFingerBase
								{
									OFFSET 0.000000 0.000000 0.000000
									CHANNELS 3 Zrotation Yrotation Xrotation
									JOINT RightHandIndex1
									{
										OFFSET -0.622530 -0.000000 -0.000000
										CHANNELS 3 Zrotation Yrotation Xrotation
										End Site
										{
											OFFSET 0.000000 0.000000 0.000000
										}
									}
								}
								JOINT RThumb
								{
									OFFSET 0.000000 0.000000 0.000000
									CHANNELS 3 Zrotation Yrotation Xrotation
									End Site
									{
										OFFSET 0.000000 0.000000 0.000000
									}
								}
							}
						}
					}
				}
			}
		}
	}
}
MOTION
Frames: 11
Frame Time: 0.008333
3.517011 17.243076 1.092483 -173.766850 -77.088544 -173.506579 -11.628722 2.304521 0.581687 -5.077190 22.143562 -17.006900 -2.790542 -1.150698 -3.935217 0.655992 5.215347 3.147786 1.098300 -0.000000 -35.324400 9.260539 -1.336943 3.584670 3.100613 -0.088165 -13.897584 2.921079 1.980990 -3.681362 0.355033 -0.425786 4.021120 -0.891500 -0.000000 -45.735800 1.190679 -3.888189 -5.418603 -0.316003 -4.206558 -3.702561 -7.886830 -4.025423 -1.184879 12.813265 -4.732293 -1.687779 -1.786723 -0.214101 1.685468 0.000000 0.000000 0.000000 20.916476 0.939151 4.422139 38.002453 -68.930496 -106.951559 2.963757 3.048406 -0.071167 9.574670 -2.765024 -0.278484 -0.206942 0.480584 -0.000000 0.000000 0.000000 0.000000 0.000000 0.000000 0.000000 3.467894 -2.027354 -6.227167 92.305540 27.518867 37.054319 -178.305171 58.884110 179.856745 -9.421588 15.379770 -1.377103 0.079273 -1.051240 -0.000000 0.000000 0.000000 0.000000 0.000000 0.000000 0.000000 
3.512906 17.243438 1.088596 -174.143851 -77.031182 -173.133453 -11.637307 2.288793 0.551191 -5.130898 22.189039 -16.979248 -2.797674 -1.158423 -3.875732 0.661337 5.287392 3.121874 1.109501 0.000000 -35.285100 9.255988 -1.357897 3.602210 3.026450 -0.054348 -13.907535 2.912033 1.970364 -3.697732 0.358063 -0.355240 4.012909 -0.869700 -0.000000 -45.756200 1.125289 -3.775900 -5.422570 -0.337657 -4.087636 -3.674520 -7.908183 -3.898763 -1.074521 12.828882 -4.902444 -1.858393 -1.761928 -0.209948 1.635265 0.000000 0.000000 0.000000 20.478828 1.678235 4.539539 41.910697 -69.534873 -112.272708 3.183473 3.332250 -0.068701 8.487819 -4.837902 -0.407553 -0.150248 0.544877 -0.000000 0.000000 0.000000 0.000000 0.000000 0.000000 0.000000 3.349195 -2.251867 -6.259923 92.296072 27.268955 36.769119 -178.256879 58.675525 179.855942 -9.484738 15.329877 -1.381767 0.079177 -1.048938 -0.000000 0.000000 0.000000 0.000000 0.000000 0.000000 0.000000 
3.510221 17.243407 1.084208 -174.537344 -76.887514 -172.825903 -11.647765 2.296076 0.544469 -5.155767 22.251004 -16.882358 -2.794783 -1.156015 -3.811662 0.673571 5.400191 3.080688 1.124800 0.000000 -35.240100 9.251439 -1.373693 3.625926 2.950417 -0.008161 -13.865006 2.904899 1.960189 -3.669006 0.365696 -0.265570 3.985865 -0.845101 -0.000000 -45.786100 1.142863 -3.738162 -5.457631 -0.326022 -4.054682 -3.740581 -7.843284 -3.877810 -1.325762 12.574882 -5.017728 -1.532119 -1.829899 -0.218906 1.730566 0.000000 0.000000 0.000000 20.270951 1.638748 3.574444 34.857436 -70.860714 -104.188889 2.938055 -0.140139 -0.063216 7.219103 -4.830506 -0.346428 -0.105537 0.566241 -0.000000 0.000000 0.000000 0.000000 0.000000 0.000000 0.000000 3.090383 -2.027584 -6.053197 92.254024 26.934045 36.466870 -178.251155 58.699709 179.853800 -9.588307 15.251543 -1.390958 0.082294 -1.056467 -0.000000 0.000000 0.000000 0.000000 0.000000 0.000000 0.000000 
3.508924 17.242857 1.079522 -174.899452 -76.724890 -172.568084 -11.656319 2.297870 0.521170 -5.152781 22.302785 -16.736463 -2.784907 -1.149383 -3.746428 0.690171 5.545056 3.028102 1.143800 -0.000000 -35.191800 9.250545 -1.381064 3.626536 2.875670 0.047144 -13.794761 2.895286 1.944597 -3.605532 0.372806 -0.174693 3.933750 -0.820099 0.000000 -45.825800 1.174638 -3.709441 -5.436422 -0.296902 -4.029718 -3.857213 -7.709175 -3.883798 -1.813357 12.235957 -5.101307 -1.027987 -1.923361 -0.231969 1.878796 0.000000 0.000000 0.000000 20.046803 1.320028 2.135583 23.184412 -71.875371 -89.718493 2.776805 -4.505038 -0.057552 6.132210 -4.443133 -0.272838 -0.067909 0.578196 0.000000 0.000000 0.000000 0.000000 0.000000 0.000000 0.000000 2.757763 -1.722045 -5.756725 92.175597 26.517860 36.159724 -178.262841 58.782581 179.851203 -9.723187 15.163173 -1.404154 0.087142 -1.065784 -0.000000 0.000000 0.000000 0.000000 0.000000 0.000000 0.000000 
3.508758 17.241831 1.074667 -175.204908 -76.579842 -172.350052 -11.660647 2.281749 0.463640 -5.125304 22.333157 -16.558671 -2.770550 -1.142049 -3.680834 0.708788 5.709588 2.967135 1.164900 0.000000 -35.141900 9.255543 -1.379891 3.591878 2.804972 0.109407 -13.711725 2.881388 1.921576 -3.515066 0.376789 -0.095502 3.855190 -0.797000 -0.000000 -45.872500 1.183359 -3.660858 -5.323204 -0.257587 -3.976685 -4.008815 -7.509437 -3.881052 -2.485295 11.901211 -5.167079 -0.485763 -2.013218 -0.245279 2.039472 0.000000 0.000000 0.000000 19.757211 0.978179 0.469738 9.310586 -72.179081 -72.570842 3.036541 -9.363291 -0.054892 5.359897 -3.921443 -0.213150 -0.024503 0.593353 -0.000000 0.000000 0.000000 0.000000 0.000000 0.000000 0.000000 2.390259 -1.516273 -5.433360 92.050391 26.025843 35.859569 -178.280873 58.847165 179.848591 -9.879248 15.074443 -1.420103 0.092903 -1.073390 -0.000000 0.000000 0.000000 0.000000 0.000000 0.000000 0.000000 
3.509571 17.240392 1.069788 -175.458148 -76.493906 -172.176496 -11.661582 2.247873 0.379740 -5.076960 22.339177 -16.355282 -2.754674 -1.138940 -3.614426 0.726594 5.878706 2.902598 1.186600 -0.000000 -35.091900 9.264785 -1.380842 3.536161 2.738496 0.171475 -13.615855 2.861977 1.890443 -3.405509 0.376412 -0.036253 3.751224 -0.777301 0.000000 -45.922799 1.165235 -3.554417 -5.152307 -0.231603 -3.858325 -4.150174 -7.329457 -3.813746 -3.129617 11.646730 -5.230572 -0.042867 -2.076762 -0.255481 2.170500 0.000000 0.000000 0.000000 19.246026 0.807194 -0.924380 -2.382082 -71.886965 -58.020961 3.565173 -14.225199 -0.055365 4.870657 -3.431090 -0.172266 0.024929 0.622538 -0.000000 0.000000 0.000000 0.000000 0.000000 0.000000 0.000000 2.064855 -1.518006 -5.161357 91.877641 25.522513 35.541285 -178.277758 58.842282 179.846045 -10.047638 14.991207 -1.437602 0.097643 -1.076882 -0.000000 0.000000 0.000000 0.000000 0.000000 0.000000 0.000000 
3.511059 17.238621 1.064997 -175.684929 -76.473036 -172.053790 -11.662159 2.208806 0.295515 -5.011363 22.322245 -16.120685 -2.737368 -1.141155 -3.555441 0.743472 6.050983 2.840304 1.209300 0.000000 -35.042701 9.274422 -1.392077 3.483107 2.674635 0.226970 -13.497034 2.838271 1.853763 -3.280674 0.372831 0.004805 3.626983 -0.761199 0.000000 -45.974400 1.151176 -3.389746 -4.988449 -0.233505 -3.682393 -4.252722 -7.242125 -3.673667 -3.600273 11.463378 -5.298039 0.296136 -2.119420 -0.262871 2.268800 0.000000 0.000000 0.000000 18.469612 0.771523 -1.854380 -10.547528 -71.328305 -47.560851 3.991089 -19.039130 -0.057390 4.611688 -2.998612 -0.145658 0.068813 0.661216 -0.000000 0.000000 0.000000 0.000000 0.000000 0.000000 0.000000 1.823389 -1.667682 -4.954742 91.672495 25.077668 35.199320 -178.245352 58.801749 179.843425 -10.216307 14.916424 -1.455209 0.100193 -1.077269 -0.000000 0.000000 0.000000 0.000000 0.000000 0.000000 0.000000 
3.512802 17.236648 1.060409 -175.895496 -76.498454 -171.981226 -11.663980 2.173548 0.225013 -4.934256 22.292206 -15.860510 -2.718791 -1.146761 -3.507848 0.759517 6.221821 2.782476 1.232300 -0.000000 -34.997200 9.282431 -1.413238 3.443105 2.613345 0.274665 -13.355668 2.812638 1.814915 -3.144644 0.367591 0.032473 3.489811 -0.748300 -0.000000 -46.025300 1.160104 -3.191202 -4.861157 -0.260619 -3.477868 -4.314239 -7.253090 -3.487532 -3.882850 11.320794 -5.372824 0.569852 -2.153274 -0.268761 2.345643 0.000000 0.000000 0.000000 17.501849 0.808320 -2.412894 -16.056250 -70.646823 -40.232672 4.166888 -23.954223 -0.060146 4.541259 -2.600807 -0.128174 0.101268 0.700568 -0.000000 0.000000 0.000000 0.000000 0.000000 0.000000 0.000000 1.666062 -1.883541 -4.795392 91.449973 24.725814 34.860675 -178.196329 58.765331 179.840834 -10.370713 14.852682 -1.471105 0.100808 -1.076363 -0.000000 0.000000 0.000000 0.000000 0.000000 0.000000 0.000000 
3.514256 17.234541 1.056029 -176.081540 -76.548743 -171.954843 -11.667164 2.144966 0.169964 -4.855078 22.274730 -15.606325 -2.702265 -1.153437 -3.457724 0.772647 6.368221 2.724339 1.250600 0.000000 -34.958500 9.287674 -1.441894 3.420183 2.558841 0.320147 -13.206008 2.787633 1.777351 -3.004939 0.361722 0.047887 3.348588 -0.739000 0.000000 -46.070300 1.196388 -2.981271 -4.776856 -0.303551 -3.267956 -4.343138 -7.336399 -3.282293 -4.011876 11.202372 -5.457996 0.797249 -2.184899 -0.273856 2.407394 0.000000 0.000000 0.000000 16.434249 0.908701 -2.731279 -19.959734 -69.865733 -34.892973 4.110762 -29.082047 -0.063653 4.646984 -2.181956 -0.115070 0.121871 0.734700 -0.000000 0.000000 0.000000 0.000000 0.000000 0.000000 0.000000 1.579575 -2.126345 -4.668425 91.219787 24.474962 34.557846 -178.145643 58.749816 179.838508 -10.496208 14.804096 -1.483984 0.100057 -1.075257 -0.000000 0.000000 0.000000 0.000000 0.000000 0.000000 0.000000 
3.515200 17.232425 1.051901 -176.262669 -76.603987 -171.951094 -11.672228 2.123408 0.127333 -4.772522 22.254795 -15.330668 -2.684318 -1.161812 -3.438668 0.785954 6.518589 2.680061 1.271200 -0.000001 -34.924300 9.291785 -1.473606 3.404985 2.506841 0.353790 -13.045377 2.764320 1.740885 -2.866577 0.357177 0.072284 3.210462 -0.727700 -0.000000 -46.116499 1.246508 -2.773759 -4.719339 -0.356311 -3.063752 -4.345606 -7.464461 -3.072762 -4.024466 11.105045 -5.561957 0.981388 -2.216915 -0.278399 2.455580 0.000000 0.000000 0.000000 15.362918 1.084007 -2.902544 -23.028410 -68.980464 -30.759340 3.878429 -34.480528 -0.067401 4.822353 -1.808677 -0.104764 0.135628 0.763974 -0.000000 0.000000 0.000000 0.000000 0.000000 0.000000 0.000000 1.556161 -2.388833 -4.564244 90.983893 24.327665 34.312394 -178.104698 58.755815 179.836687 -10.583533 14.768677 -1.492655 0.098534 -1.074356 -0.000000 0.000000 0.000000 0.000000 0.000000 0.000000 0.000000 
3.514906 17.230396 1.047936 -176.416843 -76.651369 -171.969381 -11.678794 2.108801 0.097167 -4.698338 22.262740 -15.082970 -2.670298 -1.171036 -3.423849 0.796276 6.642748 2.639772 1.287400 0.000000 -34.900300 9.293139 -1.509094 3.405400 2.463912 0.386639 -12.898690 2.745050 1.709134 -2.741566 0.354202 0.102409 3.084669 -0.715700 -0.000000 -46.156400 1.313772 -2.575574 -4.698495 -0.411838 -2.872553 -4.329626 -7.617947 -2.868983 -3.944096 11.022203 -5.683223 1.120719 -2.250533 -0.282458 2.490350 0.000000 0.000000 0.000000 14.321630 1.338973 -2.972110 -25.608020 -67.972902 -27.401331 3.513867 -40.144702 -0.071747 5.109181 -1.382464 -0.093282 0.141804 0.785804 -0.000000 0.000000 0.000000 0.000000 0.000000 0.000000 0.000000 1.580269 -2.663383 -4.479483 90.750933 24.273967 34.135931 -178.078449 58.780931 179.835496 -10.624815 14.751862 -1.496419 0.096420 -1.074024 -0.000000 0.000000 0.000000 0.000000 0.000000 0.000000 0.000000 
